<svg viewBox="0 0 24 24" fill="none" xmlns="http://www.w3.org/2000/svg">
<path d="M13.07 10.41C13.6774 9.56126 14.0041 8.54371 14.0041 7.5C14.0041 6.45629 13.6774 5.43874 13.07 4.59C13.6385 4.20195 14.3117 3.99617 15 4C15.9283 4 16.8185 4.36875 17.4749 5.02513C18.1313 5.6815 18.5 6.57174 18.5 7.5C18.5 8.42826 18.1313 9.3185 17.4749 9.97487C16.8185 10.6312 15.9283 11 15 11C14.3117 11.0038 13.6385 10.798 13.07 10.41ZM5.5 7.5C5.5 6.80776 5.70527 6.13108 6.08986 5.5555C6.47444 4.97993 7.02107 4.53133 7.66061 4.26642C8.30015 4.00151 9.00388 3.9322 9.68282 4.06725C10.3617 4.2023 10.9854 4.53564 11.4749 5.02513C11.9644 5.51461 12.2977 6.13825 12.4327 6.81718C12.5678 7.49612 12.4985 8.19985 12.2336 8.83939C11.9687 9.47893 11.5201 10.0256 10.9445 10.4101C10.3689 10.7947 9.69223 11 9 11C8.07174 11 7.1815 10.6312 6.52513 9.97487C5.86875 9.3185 5.5 8.42826 5.5 7.5ZM7.5 7.5C7.5 7.79667 7.58797 8.08668 7.7528 8.33335C7.91762 8.58003 8.15189 8.77229 8.42597 8.88582C8.70006 8.99935 9.00166 9.02906 9.29264 8.97118C9.58361 8.9133 9.85088 8.77044 10.0607 8.56066C10.2704 8.35088 10.4133 8.08361 10.4712 7.79263C10.5291 7.50166 10.4994 7.20006 10.3858 6.92597C10.2723 6.65189 10.08 6.41762 9.83335 6.25279C9.58668 6.08797 9.29667 6 9 6C8.60218 6 8.22064 6.15803 7.93934 6.43934C7.65804 6.72064 7.5 7.10217 7.5 7.5ZM16 17V19H2V17C2 17 2 13 9 13C16 13 16 17 16 17ZM14 17C13.86 16.22 12.67 15 9 15C5.33 15 4.07 16.31 4 17H14ZM15.95 13C16.5629 13.4767 17.064 14.0819 17.4182 14.7729C17.7723 15.4639 17.9709 16.2241 18 17V19H22V17C22 17 22 13.37 15.94 13H15.95Z" fill="currentColor"/>
<clipPath>
    <rect width="24" height="24" fill="white"/>
</clipPath>
</svg>
